<svg xmlns="http://www.w3.org/2000/svg" viewBox="0 0 64 64">
  <defs>
    <linearGradient id="g" x1="0" y1="0" x2="1" y2="1">
      <stop offset="0%" stop-color="#7ed56f"/>
      <stop offset="100%" stop-color="#28b485"/>
    </linearGradient>
  </defs>
  <rect width="64" height="64" rx="12" fill="url(#g)"/>
  <g fill="#ffffff">
    <path d="M22 45c8 0 12-6 12-14 0-6-2-10-5-12l3-3c5 3 8 9 8 15 0 11-6 20-18 20-4 0-7-1-10-3l3-4c2 1 4 1 7 1z"/>
    <path d="M40 13c0 5-4 9-9 9s-9-4-9-9h5c0 2 2 4 4 4s4-2 4-4h5z"/>
  </g>
</svg>

